<svg version="1" xmlns="http://www.w3.org/2000/svg" width="666.667" height="666.667" viewBox="0 0 500.000000 500.000000"><path d="M0 250v250h500V0H0v250zm249-87v75h23v68.2l5.6-5.2c7.3-6.6 15.5-10.7 24.3-12.1 18.7-2.9 35.4 5.5 43.1 21.6 4.2 8.9 6 16.3 7.1 30.7 1.3 16.2-.2 25.5-6.2 37.8-9.9 19.9-27 29.2-50.9 27.5-10.4-.7-35.7-4-40.5-5.3l-3-.8-.3-72.7-.2-72.7h-8.5c-10.1 0-10.9-.7-12-11.3l-.7-6.8-5.6 5.4c-11.1 10.5-20.8 14.2-35.7 13.5-7.9-.3-10.2-.8-15.7-3.6-8.2-4-13.9-10.1-18.4-19.5-4.7-10-6.5-19.6-6.5-34.6 0-21.1 4.9-34.8 16.6-46.7 9.8-9.9 21.2-14.1 36.1-13.1 9.4.5 17 3.5 24.1 9.3l4.3 3.5v-46.9l-8.1-1.2c-4.4-.7-8.7-1.9-9.5-2.7-.9-.9-1.4-3.5-1.4-6.9V88h39v75z"/><path d="M191.3 155.4c-13.1 4.1-19.9 14.4-22.4 33.5-2.1 16.3 1.4 34.1 8.2 42.4 5.2 6.4 9.9 8.2 20.9 8.2 8.5 0 10.1-.3 14.9-2.9 3-1.5 7.8-5.2 10.8-8.1l5.3-5.4v-55.9l-5.4-4.9c-3.4-3.2-7.2-5.5-10.6-6.6-6.1-2-15.8-2.1-21.7-.3zM295.3 305c-6.3 1.3-11.9 4.6-17.9 10.4l-5.4 5.2.2 33.5.3 33.4 5 1.3c9 2.2 24.4 2.7 30.6.9 14.5-4.3 22.6-17.9 23.6-39.8 1.1-22.6-5.1-38.4-17-43.4-4.7-1.9-13.9-2.7-19.4-1.5z"/></svg>